<?xml version="1.0" encoding="UTF-8"?>
<svg version="1.1" xmlns="http://www.w3.org/2000/svg" width="447" height="447">
<path d="M0 0 C147.51 0 295.02 0 447 0 C447 147.51 447 295.02 447 447 C299.49 447 151.98 447 0 447 C0 299.49 0 151.98 0 0 Z " fill="#07080A" transform="translate(0,0)"/>
<path d="M0 0 C1.93681161 -0.08107583 3.8745934 -0.13922475 5.8125 -0.1875 C6.89144531 -0.22230469 7.97039062 -0.25710937 9.08203125 -0.29296875 C12 0 12 0 13.7109375 1.19921875 C15.27761632 3.38782158 16.55587777 5.61830277 17.8125 8 C18.32683594 8.96808594 18.84117187 9.93617188 19.37109375 10.93359375 C19.90863281 11.94550781 20.44617188 12.95742187 21 14 C22.62954763 16.93022964 24.26124147 19.85919309 25.8984375 22.78515625 C27 25 27 25 27 27 C27.66 27 28.32 27 29 27 C29.54914063 28.13824219 30.09828125 29.27648437 30.6640625 30.44921875 C32.97655354 35.0731839 35.63754877 39.43088009 38.375 43.8125 C41.95982915 49.61093157 45.41529759 55.43035929 48.62109375 61.44921875 C50.12578805 64.23269008 51.70935015 66.95958898 53.3125 69.6875 C56.20777364 74.62306714 59.05745768 79.58227932 61.875 84.5625 C62.26856689 85.2536792 62.66213379 85.9448584 63.06762695 86.65698242 C64.62214792 89.41348426 65.99662103 91.98986309 67 95 C67.45890625 95.45503906 67.9178125 95.91007812 68.390625 96.37890625 C70.37464831 98.37737634 71.44579988 100.44266775 72.75 102.9375 C75.49615029 108.10108433 78.4022127 113.14671703 81.38671875 118.17578125 C86 126.25181598 86 126.25181598 86 130 C86.99 130 87.98 130 89 130 C89.515625 128.906875 90.03125 127.81375 90.5625 126.6875 C92.7927186 122.21130154 95.46534145 118.09029958 98.18359375 113.8984375 C101.01140145 109.38610779 103.51435127 104.70725419 106 100 C106.66 100 107.32 100 108 100 C108.25136719 99.14019531 108.50273437 98.28039062 108.76171875 97.39453125 C110.07555841 93.79286985 111.75124172 90.91535952 113.8125 87.6875 C116.1360164 84.00651704 118.42610778 80.32926857 120.5 76.5 C123.16056099 71.6178258 126.09841816 66.91600958 129.02734375 62.19140625 C130.7073867 59.47339617 132.36263283 56.74381691 134 54 C138.4453639 46.56716036 142.99204558 39.19631082 147.59375 31.859375 C148.03493164 31.15570801 148.47611328 30.45204102 148.93066406 29.72705078 C149.78542337 28.36519333 150.6414628 27.00413816 151.49902344 25.64404297 C153.45299978 22.53241885 155.35853287 19.40691111 157.171875 16.2109375 C158.37514569 14.09750053 159.65098598 12.02352103 161 10 C135.26 10 109.52 10 83 10 C85.7380321 14.79339732 85.7380321 14.79339732 88.484375 19.58203125 C88.90203125 20.31808594 89.3196875 21.05414063 89.75 21.8125 C90.17796875 22.56144531 90.6059375 23.31039062 91.046875 24.08203125 C92 26 92 26 92 28 C92.66 28 93.32 28 94 28 C95.0070238 33.03511899 94.97387813 36.23947038 93 41 C92.34 41 91.68 41 91 41 C91 41.66 91 42.32 91 43 C90.01 43 89.02 43 88 43 C86.4933028 40.2118978 84.99580196 37.41896042 83.5 34.625 C83.07074219 33.8309375 82.64148438 33.036875 82.19921875 32.21875 C81.79316406 31.45820313 81.38710937 30.69765625 80.96875 29.9140625 C80.59169922 29.2123291 80.21464844 28.5105957 79.82617188 27.78759766 C79 26 79 26 79 24 C77.515 23.505 77.515 23.505 76 23 C75.33333333 20.66666667 74.66666667 18.33333333 74 16 C73.01 15.67 72.02 15.34 71 15 C70.505 12.525 70.505 12.525 70 10 C69.01 9.67 68.02 9.34 67 9 C66.01 6.03 65.02 3.06 64 0 C102.28 0 140.56 0 180 0 C172.31191008 13.17958271 172.31191008 13.17958271 168.4375 19.5625 C164.78166484 25.61583547 161.31290079 31.75095968 158 38 C157.34 38 156.68 38 156 38 C155.88785156 38.56847656 155.77570313 39.13695312 155.66015625 39.72265625 C154.9173555 42.28509909 153.84129137 44.16924855 152.4375 46.4375 C151.89867187 47.31535156 151.35984375 48.19320312 150.8046875 49.09765625 C150.20914063 50.05542969 149.61359375 51.01320312 149 52 C147.68653783 54.12440542 146.37407634 56.24942978 145.0625 58.375 C144.38316406 59.47585937 143.70382812 60.57671875 143.00390625 61.7109375 C140.54119622 65.75304636 138.16833942 69.84308143 135.80078125 73.94140625 C133.18788484 78.37936263 130.44652514 82.73409472 127.69921875 87.08984375 C125.96037436 89.89173223 125.96037436 89.89173223 124.95703125 92.69140625 C123.93555297 95.15546202 122.86158376 96.14305859 121 98 C119.92418028 99.97096743 118.90780955 101.97500616 117.9375 104 C116.41237572 107.16667026 114.95167072 110.07249392 113 113 C112.34 113 111.68 113 111 113 C110.76539063 113.66 110.53078125 114.32 110.2890625 115 C108.62666387 118.86885498 106.53176639 122.38903792 104.375 126 C103.93349609 126.74531982 103.49199219 127.49063965 103.03710938 128.25854492 C99.62393931 134.00261548 96.13428435 139.69697525 92.59375 145.36328125 C91.27779715 147.54040912 90.09062051 149.70424382 89 152 C88.34 152 87.68 152 87 152 C86.62488281 151.31035156 86.24976563 150.62070312 85.86328125 149.91015625 C79.67915672 138.55442128 73.45759523 127.20778637 66.86376953 116.08300781 C64 111.21220579 64 111.21220579 64 109 C63.01 108.67 62.02 108.34 61 108 C59.46484375 105.48828125 59.46484375 105.48828125 57.9375 102.3125 C57.17759766 100.75982422 57.17759766 100.75982422 56.40234375 99.17578125 C55.0691459 96.15658947 53.98626159 93.14754296 53 90 C52.34 90 51.68 90 51 90 C48.82658104 86.04533792 46.66241799 82.08568659 44.5 78.125 C43.56994141 76.43310547 43.56994141 76.43310547 42.62109375 74.70703125 C42.03457031 73.63066406 41.44804687 72.55429688 40.84375 71.4453125 C40.29912109 70.45031738 39.75449219 69.45532227 39.19335938 68.43017578 C38 66 38 66 38 64 C37.34 64 36.68 64 36 64 C35.43796875 62.85273438 34.8759375 61.70546875 34.296875 60.5234375 C31.73160485 55.39063506 28.87800736 50.43701272 26.00390625 45.47265625 C23 40.21332537 23 40.21332537 23 38 C22.34 38 21.68 38 21 38 C18.99321599 34.37871557 16.9957352 30.75238357 15 27.125 C14.42765625 26.09246094 13.8553125 25.05992187 13.265625 23.99609375 C12.72421875 23.00996094 12.1828125 22.02382812 11.625 21.0078125 C10.87089844 19.64100342 10.87089844 19.64100342 10.1015625 18.24658203 C9 16 9 16 9 14 C8.01 13.67 7.02 13.34 6 13 C4.39453125 10.05859375 4.39453125 10.05859375 2.8125 6.4375 C2.28269531 5.23996094 1.75289062 4.04242188 1.20703125 2.80859375 C0.80871094 1.88175781 0.41039062 0.95492187 0 0 Z " fill="#F2F2F2" transform="translate(133,150)"/>
<path d="M0 0 C3.60759484 1.20253161 3.79695885 1.92879626 5.5 5.1875 C5.92667969 5.99703125 6.35335938 6.8065625 6.79296875 7.640625 C7.19128906 8.41921875 7.58960938 9.1978125 8 10 C8.8971875 11.7015625 8.8971875 11.7015625 9.8125 13.4375 C11 16 11 16 11 18 C11.66 18 12.32 18 13 18 C16.11961239 23.49582779 19.05468532 29.04013282 21.7890625 34.73828125 C22.95010714 37.04577249 22.95010714 37.04577249 24.5859375 39.10546875 C26 41 26 41 27 44 C27.495 44.474375 27.99 44.94875 28.5 45.4375 C30.25691457 47.26761934 30.4792288 48.56138873 31 51 C26.90207437 51.47057519 23.07758358 51.71052822 19 51 C16.43888391 48.70599417 15.11648017 46.23259955 14 43 C14 42.34 14 41.68 14 41 C13.34 41 12.68 41 12 41 C11.49210937 40.03320312 10.98421875 39.06640625 10.4609375 38.0703125 C6.83642428 31.20546327 3.17140943 24.42907295 -0.96875 17.85546875 C-2 16 -2 16 -2 14 C-2.66 14 -3.32 14 -4 14 C-5.06234754 9.57355192 -5.38027857 7.68450143 -3.125 3.625 C-1 1 -1 1 0 0 Z " fill="#EEEEEE" transform="translate(268,251)"/>
<path d="M0 0 C25.74 0 51.48 0 78 0 C77.67 0.66 77.34 1.32 77 2 C41.36 2.495 41.36 2.495 5 3 C4.34 4.32 3.68 5.64 3 7 C0 3.375 0 3.375 0 0 Z " fill="#4F4F4F" transform="translate(216,160)"/>
<path d="M0 0 C4.95 0 9.9 0 15 0 C15 0.33 15 0.66 15 1 C11.37 1 7.74 1 4 1 C4.53540311 6.73222047 4.53540311 6.73222047 8 11 C8.6875 13.6875 8.6875 13.6875 9 16 C8.34 15.67 7.68 15.34 7 15 C6.375 12.4375 6.375 12.4375 6 10 C5.01 9.67 4.02 9.34 3 9 C1.66140666 6.0859429 0.91238901 3.0847438 0 0 Z " fill="#BDBDBF" transform="translate(197,150)"/>
<path d="M0 0 C8.25 0 16.5 0 25 0 C25 0.33 25 0.66 25 1 C14.605 1.495 14.605 1.495 4 2 C3.34 3.32 2.68 4.64 2 6 C0 3 0 3 0 0 Z " fill="#161618" transform="translate(217,161)"/>
<path d="M0 0 C0.33 0.66 0.66 1.32 1 2 C0.67 2.99 0.34 3.98 0 5 C-0.66 5 -1.32 5 -2 5 C-2 5.66 -2 6.32 -2 7 C-2.99 7 -3.98 7 -5 7 C-5.66 5.35 -6.32 3.7 -7 2 C-4.525 2.495 -4.525 2.495 -2 3 C-1.34 2.01 -0.68 1.02 0 0 Z " fill="#89898A" transform="translate(226,186)"/>
<path d="M0 0 C0.33 0.66 0.66 1.32 1 2 C0.06421005 4.35981813 -0.93347808 6.69631264 -2 9 C-2.66 8.67 -3.32 8.34 -4 8 C-2.87548273 5.0280615 -1.77706209 2.66559313 0 0 Z " fill="#3B3B3C" transform="translate(236,277)"/>
</svg>
